<?xml version="1.0" encoding="utf-8"?>
<!-- Generator: Adobe Illustrator 23.1.1, SVG Export Plug-In . SVG Version: 6.00 Build 0)  -->
<svg version="1.1" id="Ebene_1" xmlns="http://www.w3.org/2000/svg" xmlns:xlink="http://www.w3.org/1999/xlink" x="0px" y="0px"
	 viewBox="0 0 500 500" style="enable-background:new 0 0 500 500;" xml:space="preserve">
<style type="text/css">
	.st0{fill:#FF3333;}
	.st1{fill:#FFFFFF;}
</style>
<g>
	<circle class="st0" cx="250" cy="250" r="250"/>
</g>
<g>
	<path class="st1" d="M376.8,179.55h-8.97c1.89-8.02,2.85-16.19,2.85-24.51c0-18.08-5.73-32.23-17.18-42.45
		c-11.45-10.21-27.24-15.32-47.37-15.32c-14.15,0-25.75,3.5-34.79,10.5c-9.05,7-13.57,17.94-13.57,32.82
		c0,19.69,10.94,42.23,32.82,67.61c21.88,25.38,38.51,45.95,49.89,61.7c11.38,15.75,17.07,33.91,17.07,54.48
		c0,20.28-6.93,37.23-20.79,50.87c-13.86,13.64-30.85,23.67-50.98,30.08c-20.13,6.42-39.68,9.63-58.64,9.63
		c-15.17,0-27.61-0.73-37.31-2.19c-9.7-1.46-18.02-3.58-24.94-6.35c-6.93-2.77-15.13-6.85-24.62-12.25
		c-7.88-4.38-12.98-6.56-15.32-6.56c-2.77,0-5.07,0.66-6.89,1.97c-1.83,1.31-3.61,3.61-5.36,6.89c-1.75,3.28-4.08,8.35-7,15.21
		h-8.97c9.92-23.63,20.13-59.44,30.63-107.43h8.97c-2.77,7.73-4.16,18.02-4.16,30.85c0,22.9,6.35,40.23,19.04,51.97
		c12.69,11.74,30.7,17.61,54.04,17.61c19.4,0,33-3.64,40.81-10.94c7.8-7.29,11.71-17.43,11.71-30.41c0-16.92-3.83-32.31-11.49-46.17
		c-7.66-13.86-22.68-34.86-45.07-63.01c-22.39-28.15-33.59-54.19-33.59-78.11c0-19.69,6.02-36.39,18.05-50.11
		c12.03-13.71,27.13-23.96,45.29-30.74c18.16-6.78,36.36-10.17,54.59-10.17c12.69,0,24.1,1.17,34.24,3.5
		c10.14,2.33,17.68,4.59,22.64,6.78c4.96,2.19,12.4,5.69,22.32,10.5c1.6,0.73,4.12,1.93,7.55,3.61c3.43,1.68,5.87,2.52,7.33,2.52
		c2.33,0,4.63-1.86,6.89-5.58c2.26-3.72,4.85-9.74,7.77-18.05h8.97C391.89,116.02,383.06,146.44,376.8,179.55z"/>
</g>
</svg>
